<svg width="40" height="40" viewBox="0 0 40 40" fill="none" xmlns="http://www.w3.org/2000/svg">
<path d="M0 20C0 8.95431 8.95431 0 20 0C31.0457 0 40 8.95431 40 20C40 31.0457 31.0457 40 20 40C8.95431 40 0 31.0457 0 20Z" fill="white" fill-opacity="0.11"/>
<path d="M20.9646 21.3018V28H17.888V21.3018H15.332V18.5858H17.888V17.5976C17.888 13.929 19.4203 12 22.6626 12C23.6566 12 23.9051 12.1598 24.4494 12.2899V14.9763C23.84 14.8698 23.6684 14.8107 23.0353 14.8107C22.2839 14.8107 21.8816 15.0237 21.5148 15.4438C21.148 15.8639 20.9646 16.5917 20.9646 17.6331V18.5917H24.4494L23.5146 21.3077H20.9646V21.3018Z" fill="#F5F4F4"/>
</svg>
