<svg xmlns="http://www.w3.org/2000/svg" width="211" height="32" viewBox="0 0 211 32" fill="none"><path d="M25.4537 14.503C25.2078 14.1422 24.8866 13.8305 24.5091 13.586C24.1315 13.3416 23.7051 13.1694 23.2548 13.0795C23.0047 13.0268 22.749 13.0001 22.4925 13C21.826 13.0007 21.1736 13.1784 20.6128 13.512L13.704 17.593C12.018 18.553 10.784 20.0659 10.2473 21.8306C9.9831 22.7571 9.92988 23.7243 10.0911 24.6708C10.2523 25.6173 10.6243 26.5224 11.1835 27.3285L13.118 30.403C13.4734 30.9493 13.9889 31.3909 14.6045 31.6765C15.1448 31.9177 15.7427 32.0271 16.3414 31.9943C16.9401 31.9615 17.5198 31.7875 18.0256 31.4889C18.5319 31.1894 18.9468 30.7747 19.2309 30.2844C19.5149 29.7941 19.6585 29.2445 19.648 28.6881C19.6236 28.05 19.4074 27.4308 19.0238 26.9003L17.4086 24.2893C17.2552 24.0657 17.2039 23.7948 17.266 23.5361C17.3281 23.2775 17.4985 23.0522 17.7397 22.9099L24.2673 19.0519C24.8557 18.7221 25.3321 18.2456 25.642 17.6768C25.9062 17.1771 26.0277 16.6229 25.9947 16.0672C25.9618 15.5115 25.7755 14.973 25.4537 14.503Z" fill="url(#paint0_linear_6966_6351)"></path><path d="M3.49881 0C2.57125 0.00122999 1.68209 0.361888 1.02621 1.00288C0.370323 1.64388 0.00125856 2.5129 0 3.4194V27.5783C0.000629132 28.4852 0.369384 29.3548 1.02533 29.9963C1.68129 30.6378 2.57084 30.9988 3.49881 31C4.42719 30.9994 5.31739 30.6387 5.97385 29.9971C6.63032 29.3556 6.99937 28.4856 7 27.5783V3.4194C6.99874 2.51249 6.62944 1.64312 5.97304 1.00206C5.31664 0.360998 4.42678 0.00061485 3.49881 0Z" fill="url(#paint1_linear_6966_6351)"></path><path d="M25.4686 17.4848C25.9514 16.7526 26.1139 15.8652 25.9204 15.0173C25.727 14.1695 25.1935 13.4304 24.4369 12.9622L5.21992 0.514133C4.67664 0.178483 4.04527 8.53974e-05 3.40045 6.62747e-06C2.83058 -0.00110175 2.26965 0.13683 1.76962 0.401003C1.2696 0.665176 0.84668 1.04705 0.540036 1.51124C0.297874 1.87265 0.13246 2.27696 0.0533858 2.70068C-0.0256884 3.12441 -0.0168459 3.5591 0.0794192 3.97949C0.174059 4.40015 0.354103 4.79851 0.609084 5.1515C0.864065 5.5045 1.18891 5.80512 1.5649 6.03599L20.7818 18.4841C21.1574 18.716 21.5767 18.8742 22.0155 18.9495C22.4544 19.0248 22.9043 19.0158 23.3395 18.923C23.7748 18.8302 24.1869 18.6554 24.5522 18.4086C24.9175 18.1619 25.2289 17.8479 25.4686 17.4848Z" fill="url(#paint2_linear_6966_6351)"></path><path d="M53.3132 28H48.7477L43.1623 18.9787H39.8519V28H36.0865V5.50173H44.543C46.4362 5.50173 48.0574 6.15022 49.4066 7.44719C50.7664 8.7337 51.4462 10.3131 51.4462 12.1853C51.4462 13.7333 51.0645 15.0721 50.3009 16.2017C49.5478 17.3209 48.5071 18.1054 47.1788 18.5551L53.3132 28ZM39.8519 9.14162V15.3702H44.4175C45.3484 15.3702 46.1171 15.0721 46.7238 14.4759C47.3409 13.8693 47.6494 13.1057 47.6494 12.1853C47.6494 11.2963 47.3409 10.5693 46.7238 10.0045C46.1171 9.42925 45.3484 9.14162 44.4175 9.14162H39.8519ZM68.1012 19.4494C68.1012 20.0561 68.0594 20.5738 67.9757 21.0026H56.0206C56.2193 22.2787 56.7266 23.2776 57.5424 23.9993C58.3687 24.721 59.4147 25.0818 60.6802 25.0818C61.5693 25.0818 62.3851 24.904 63.1278 24.5484C63.8704 24.1823 64.4247 23.6959 64.7908 23.0893L67.6462 24.9092C67.0605 25.9761 66.1453 26.8129 64.9006 27.4195C63.6664 28.0157 62.2387 28.3138 60.6175 28.3138C59.1218 28.3138 57.7516 27.9582 56.5069 27.2469C55.2623 26.5252 54.2738 25.5316 53.5417 24.266C52.82 23.0004 52.4591 21.5988 52.4591 20.0613C52.4591 18.5656 52.8147 17.2006 53.526 15.9664C54.2477 14.7217 55.2256 13.7438 56.4599 13.0325C57.7045 12.3213 59.0695 11.9657 60.5547 11.9657C61.9458 11.9657 63.2167 12.2951 64.3672 12.9541C65.5282 13.613 66.4382 14.5178 67.0971 15.6683C67.7665 16.8084 68.1012 18.0688 68.1012 19.4494ZM56.1461 18.257H64.3358C64.2417 17.2738 63.8233 16.4737 63.0807 15.8566C62.3381 15.229 61.4281 14.9152 60.3508 14.9152C59.2944 14.9152 58.4001 15.2133 57.6679 15.8095C56.9358 16.3952 56.4285 17.2111 56.1461 18.257ZM81.587 5.50173H85.1641V28H81.587V25.882C81.1686 26.5932 80.4888 27.1789 79.5474 27.6391C78.6165 28.0889 77.6281 28.3138 76.5822 28.3138C74.4694 28.3138 72.6808 27.5241 71.2165 25.9447C69.7626 24.3653 69.0357 22.4251 69.0357 20.124C69.0357 17.8439 69.7626 15.9141 71.2165 14.3347C72.6808 12.7554 74.4694 11.9657 76.5822 11.9657C77.6176 11.9657 78.6061 12.1958 79.5474 12.656C80.4888 13.1162 81.1686 13.7019 81.587 14.4132V5.50173ZM77.3196 24.9092C78.1981 24.9092 79.0297 24.6896 79.8141 24.2503C80.609 23.811 81.2 23.2514 81.587 22.5715V17.755C81.2 17.0542 80.6143 16.4841 79.8298 16.0449C79.0454 15.5951 78.2086 15.3702 77.3196 15.3702C75.9703 15.3702 74.8407 15.8252 73.9307 16.7352C73.0207 17.6347 72.5657 18.7643 72.5657 20.124C72.5657 21.4838 73.0207 22.6238 73.9307 23.5443C74.8407 24.4542 75.9703 24.9092 77.3196 24.9092ZM95.465 5.18795C96.898 5.18795 98.3361 5.4965 99.7795 6.11361C101.223 6.72026 102.332 7.4838 103.106 8.40423L100.925 11.3224C100.172 10.5484 99.2775 9.93654 98.242 9.48678C97.217 9.03702 96.1972 8.81215 95.1826 8.81215C94.1471 8.81215 93.2999 9.04748 92.641 9.51816C91.9925 9.98883 91.6682 10.6007 91.6682 11.3538C91.6682 11.8663 91.8042 12.3161 92.0762 12.7031C92.3481 13.0796 92.7142 13.3934 93.1744 13.6444C93.6451 13.885 94.1785 14.1046 94.7747 14.3034C95.3709 14.5021 95.9984 14.6956 96.6574 14.8839C97.3268 15.0721 97.991 15.2761 98.6499 15.4957C99.3193 15.7154 99.9521 15.9926 100.548 16.3273C101.144 16.662 101.673 17.049 102.133 17.4883C102.604 17.9276 102.975 18.4924 103.247 19.1827C103.519 19.8626 103.655 20.6365 103.655 21.5047C103.655 22.4042 103.466 23.2671 103.09 24.0934C102.724 24.9092 102.201 25.6309 101.521 26.2585C100.852 26.8861 100.004 27.3881 98.9794 27.7647C97.9544 28.1307 96.8352 28.3138 95.6219 28.3138C93.9484 28.3138 92.2958 27.9529 90.6641 27.2312C89.0429 26.5095 87.7303 25.5891 86.7261 24.4699L89.1423 21.7086C90.1255 22.65 91.1296 23.3822 92.1546 23.9051C93.1901 24.4281 94.3459 24.6896 95.6219 24.6896C96.8666 24.6896 97.8707 24.402 98.6342 23.8267C99.4082 23.241 99.7952 22.4774 99.7952 21.5361C99.7952 21.0445 99.6593 20.6156 99.3873 20.2496C99.1154 19.8835 98.7493 19.5854 98.2891 19.3553C97.8289 19.1252 97.3006 18.916 96.7045 18.7277C96.1083 18.5394 95.4807 18.3616 94.8218 18.1943C94.1628 18.0165 93.5039 17.823 92.8449 17.6138C92.1964 17.4046 91.5741 17.1379 90.9779 16.8136C90.3817 16.4894 89.8535 16.1076 89.3933 15.6683C88.9331 15.229 88.567 14.6694 88.2951 13.9896C88.0231 13.3097 87.8871 12.5305 87.8871 11.6519C87.8871 9.81102 88.5984 8.27348 90.0209 7.03927C91.4434 5.80505 93.2581 5.18795 95.465 5.18795ZM108.888 28L103.209 12.2951H107.021L110.331 22.4774L114.003 12.2951H116.89L120.592 22.4774L123.887 12.2951H127.715L122.036 28H119.164L115.446 17.8177L111.712 28H108.888ZM129.261 5.67431C129.711 5.22455 130.25 4.99968 130.877 4.99968C131.505 4.99968 132.044 5.22455 132.493 5.67431C132.954 6.12407 133.184 6.6575 133.184 7.27461C133.184 7.91263 132.954 8.45652 132.493 8.90628C132.044 9.35604 131.505 9.58091 130.877 9.58091C130.25 9.58091 129.711 9.35604 129.261 8.90628C128.812 8.45652 128.587 7.91263 128.587 7.27461C128.587 6.6575 128.812 6.12407 129.261 5.67431ZM129.073 12.2951H132.635V28H129.073V12.2951ZM144.567 24.6896L144.771 27.8431C144.259 28.0941 143.615 28.2196 142.841 28.2196C141.074 28.2196 139.646 27.681 138.558 26.6037C137.47 25.5159 136.926 24.0202 136.926 22.1166V15.6997H133.914V12.2951H136.926V8.07475H140.488V12.2951H144.614V15.6997H140.488V21.9597C140.488 22.8487 140.76 23.56 141.304 24.0934C141.858 24.6164 142.543 24.8779 143.359 24.8779C143.746 24.8779 144.149 24.8151 144.567 24.6896ZM160.469 24.015C159.873 25.3224 158.926 26.3683 157.629 27.1528C156.332 27.9268 154.868 28.3138 153.236 28.3138C150.904 28.3138 148.948 27.5346 147.369 25.9761C145.8 24.4176 145.015 22.4774 145.015 20.1554C145.015 18.6283 145.371 17.2372 146.082 15.9821C146.793 14.727 147.776 13.7438 149.032 13.0325C150.287 12.3213 151.678 11.9657 153.205 11.9657C154.722 11.9657 156.081 12.3108 157.284 13.0012C158.497 13.6915 159.397 14.6224 159.983 15.7938L156.955 17.4883C156.63 16.8502 156.134 16.3429 155.464 15.9664C154.805 15.5899 154.052 15.4016 153.205 15.4016C151.866 15.4016 150.752 15.8566 149.863 16.7666C148.985 17.6661 148.545 18.7957 148.545 20.1554C148.545 21.4942 148.99 22.6186 149.879 23.5286C150.778 24.4281 151.897 24.8779 153.236 24.8779C154.157 24.8779 154.973 24.6739 155.684 24.266C156.395 23.8581 156.928 23.2932 157.284 22.5715L160.469 24.015ZM170.487 11.9657C172.464 11.9657 174.028 12.6037 175.179 13.8797C176.34 15.1558 176.92 16.8764 176.92 19.0415V28H173.327V19.6063C173.327 18.3407 172.993 17.3471 172.323 16.6254C171.654 15.8932 170.754 15.5271 169.625 15.5271C168.83 15.5271 168.071 15.7258 167.35 16.1233C166.628 16.5208 166.079 17.0542 165.702 17.7236V28H162.141V5.50173H165.702V14.4132C166.163 13.6601 166.821 13.0639 167.679 12.6246C168.547 12.1853 169.483 11.9657 170.487 11.9657ZM194.595 19.4494C194.595 20.0561 194.553 20.5738 194.469 21.0026H182.514C182.713 22.2787 183.22 23.2776 184.036 23.9993C184.862 24.721 185.908 25.0818 187.174 25.0818C188.063 25.0818 188.879 24.904 189.621 24.5484C190.364 24.1823 190.918 23.6959 191.284 23.0893L194.14 24.9092C193.554 25.9761 192.639 26.8129 191.394 27.4195C190.16 28.0157 188.732 28.3138 187.111 28.3138C185.615 28.3138 184.245 27.9582 183.001 27.2469C181.756 26.5252 180.767 25.5316 180.035 24.266C179.314 23.0004 178.953 21.5988 178.953 20.0613C178.953 18.5656 179.308 17.2006 180.02 15.9664C180.741 14.7217 181.719 13.7438 182.953 13.0325C184.198 12.3213 185.563 11.9657 187.048 11.9657C188.439 11.9657 189.71 12.2951 190.861 12.9541C192.022 13.613 192.932 14.5178 193.591 15.6683C194.26 16.8084 194.595 18.0688 194.595 19.4494ZM182.64 18.257H190.829C190.735 17.2738 190.317 16.4737 189.574 15.8566C188.832 15.229 187.922 14.9152 186.844 14.9152C185.788 14.9152 184.894 15.2133 184.162 15.8095C183.429 16.3952 182.922 17.2111 182.64 18.257ZM202.276 28.3609C201 28.3609 199.734 28.1517 198.479 27.7333C197.224 27.3149 196.214 26.7606 195.451 26.0702L196.863 23.3717C197.459 23.947 198.264 24.4176 199.279 24.7837C200.304 25.1498 201.266 25.3328 202.166 25.3328C202.94 25.3328 203.567 25.1707 204.049 24.8465C204.53 24.5118 204.77 24.0934 204.77 23.5913C204.77 23.2462 204.645 22.9533 204.394 22.7127C204.143 22.4722 203.813 22.2891 203.405 22.1636C202.997 22.0277 202.532 21.8917 202.009 21.7557C201.486 21.6093 200.947 21.4785 200.393 21.3635C199.849 21.238 199.316 21.0602 198.793 20.83C198.27 20.5895 197.804 20.3175 197.396 20.0142C196.988 19.7004 196.659 19.2768 196.408 18.7434C196.157 18.21 196.031 17.5981 196.031 16.9078C196.031 15.4539 196.596 14.2667 197.726 13.3463C198.866 12.4259 200.335 11.9657 202.134 11.9657C203.275 11.9657 204.368 12.1278 205.413 12.452C206.47 12.7763 207.338 13.247 208.018 13.8641L206.606 16.6254C206.02 16.1128 205.251 15.7102 204.3 15.4173C203.358 15.114 202.521 14.9623 201.789 14.9623C201.13 14.9623 200.602 15.114 200.205 15.4173C199.807 15.7102 199.608 16.1128 199.608 16.6254C199.608 16.981 199.771 17.2843 200.095 17.5353C200.419 17.7759 200.837 17.9746 201.35 18.1315C201.873 18.2884 202.448 18.4453 203.076 18.6022C203.703 18.7486 204.326 18.9421 204.943 19.1827C205.57 19.4128 206.14 19.6952 206.653 20.0299C207.176 20.3541 207.599 20.8144 207.924 21.4105C208.248 21.9963 208.41 22.6814 208.41 23.4658C208.41 24.8779 207.835 26.0493 206.684 26.9802C205.534 27.9006 204.064 28.3609 202.276 28.3609Z" fill="white"></path><defs><linearGradient id="paint0_linear_6966_6351" x1="18.14" y1="19.0938" x2="16.0183" y2="31.8147" gradientUnits="userSpaceOnUse"><stop stop-color="#FD28FC"></stop><stop offset="0.11" stop-color="#F029FC"></stop><stop offset="0.31" stop-color="#CF2CFB"></stop><stop offset="0.58" stop-color="#9832FA"></stop><stop offset="0.91" stop-color="#4E39F8"></stop><stop offset="1" stop-color="#383BF8"></stop></linearGradient><linearGradient id="paint1_linear_6966_6351" x1="6.00578" y1="8.24745" x2="-2.26288" y2="33.2863" gradientUnits="userSpaceOnUse"><stop stop-color="#FD0E38"></stop><stop offset="1" stop-color="#FF933B"></stop></linearGradient><linearGradient id="paint2_linear_6966_6351" x1="4.94123" y1="3.39636" x2="18.7116" y2="14.5568" gradientUnits="userSpaceOnUse"><stop stop-color="#FD0E38"></stop><stop offset="1" stop-color="#FD28FC"></stop></linearGradient></defs></svg>